<svg width="756" height="685" viewBox="0 0 756 685" fill="none" xmlns="http://www.w3.org/2000/svg">
<g clip-path="url(#clip0_470_19)">
<path d="M363.078 375.016H406.73C433.684 375.016 447.16 384.587 447.16 403.727C447.16 416.618 442.375 426.774 432.805 434.196C423.234 441.423 409.953 445.036 392.961 445.036H335.539L313.859 498.942C290.227 558.512 265.52 600.505 239.738 624.919C213.957 649.528 181.828 661.833 143.352 661.833C107.023 661.833 76.6523 649.723 52.2383 625.505C28.0195 601.286 15.9102 571.11 15.9102 534.977C15.9102 507.829 23.0391 482.731 37.2969 459.684C51.5547 436.833 71.7695 418.083 97.9414 403.434C131.145 384.88 176.945 375.602 235.344 375.602L281.633 375.016L349.895 205.094C361.613 175.602 367.473 155.485 367.473 144.743C367.473 135.563 363.371 127.653 355.168 121.012C346.965 114.177 337.199 110.759 325.871 110.759C306.926 110.759 289.641 119.352 274.016 136.54C258.586 153.727 250.871 172.77 250.871 193.669C250.871 204.997 253.508 214.079 258.781 220.915C264.25 227.555 273.625 233.415 286.906 238.493C300.969 244.157 308 253.141 308 265.446C308 276.579 303.801 285.856 295.402 293.278C287.004 300.7 276.555 304.411 264.055 304.411C239.25 304.411 218.059 294.157 200.48 273.649C183.098 252.946 174.406 227.946 174.406 198.649C174.406 155.876 190.422 118.669 222.453 87.0281C254.484 55.1921 292.082 39.2742 335.246 39.2742C366.887 39.2742 393.254 48.8445 414.348 67.9851C435.637 86.9304 446.281 110.759 446.281 139.469C446.281 157.634 441.203 179.509 431.047 205.094L363.078 375.016ZM255.559 445.036C214.543 445.036 183.098 448.942 161.223 456.755C140.91 463.981 124.895 474.333 113.176 487.809C101.457 501.481 95.5977 516.52 95.5977 532.927C95.5977 548.161 100.578 561.052 110.539 571.598C120.5 582.145 132.609 587.419 146.867 587.419C165.031 587.419 181.34 579.411 195.793 563.395C210.441 547.575 224.797 522.087 238.859 486.93L255.559 445.036Z" fill="black"/>
<path d="M363.078 375.016L354.722 371.674L349.785 384.016H363.078V375.016ZM432.805 434.196L438.228 441.378L438.274 441.344L438.32 441.308L432.805 434.196ZM335.539 445.036V436.036H329.458L327.189 441.678L335.539 445.036ZM313.859 498.942L305.509 495.584L305.501 495.604L305.494 495.623L313.859 498.942ZM239.738 624.919L233.55 618.384L233.537 618.396L233.524 618.409L239.738 624.919ZM52.2383 625.505L45.8743 631.869L45.8871 631.881L45.8999 631.894L52.2383 625.505ZM37.2969 459.684L29.6612 454.92L29.6521 454.935L29.6431 454.949L37.2969 459.684ZM97.9414 403.434L93.551 395.578L93.5458 395.581L97.9414 403.434ZM235.344 375.602V384.602H235.401L235.458 384.602L235.344 375.602ZM281.633 375.016L281.747 384.016L287.747 383.94L289.984 378.371L281.633 375.016ZM349.895 205.094L358.246 208.449L358.252 208.434L358.258 208.418L349.895 205.094ZM355.168 121.012L349.406 127.926L349.455 127.967L349.505 128.008L355.168 121.012ZM274.016 136.54L267.356 130.486L267.337 130.507L267.318 130.528L274.016 136.54ZM258.781 220.915L251.655 226.412L251.743 226.526L251.834 226.636L258.781 220.915ZM286.906 238.493L290.269 230.145L290.195 230.115L290.12 230.086L286.906 238.493ZM200.48 273.649L193.588 279.436L193.617 279.471L193.647 279.506L200.48 273.649ZM222.453 87.0281L228.778 93.431L228.788 93.4212L228.798 93.4115L222.453 87.0281ZM414.348 67.9851L408.3 74.6501L408.332 74.6794L408.365 74.7084L414.348 67.9851ZM431.047 205.094L439.403 208.437L439.408 208.426L439.412 208.415L431.047 205.094ZM255.559 445.036L263.919 448.368L268.835 436.036H255.559V445.036ZM161.223 456.755L164.239 465.234L164.25 465.23L161.223 456.755ZM113.176 487.809L106.384 481.904L106.363 481.928L106.342 481.952L113.176 487.809ZM195.793 563.395L189.189 557.281L189.15 557.323L189.111 557.366L195.793 563.395ZM238.859 486.93L247.216 490.273L247.22 490.263L238.859 486.93ZM363.078 384.016H406.73V366.016H363.078V384.016ZM406.73 384.016C419.415 384.016 427.315 386.318 431.842 389.532C435.802 392.345 438.16 396.543 438.16 403.727H456.16C456.16 391.771 451.78 381.614 442.264 374.856C433.314 368.5 420.999 366.016 406.73 366.016V384.016ZM438.16 403.727C438.16 414.043 434.503 421.49 427.289 427.084L438.32 441.308C450.247 432.058 456.16 419.192 456.16 403.727H438.16ZM427.381 427.014C419.906 432.658 408.789 436.036 392.961 436.036V454.036C411.117 454.036 426.563 450.187 438.228 441.378L427.381 427.014ZM392.961 436.036H335.539V454.036H392.961V436.036ZM327.189 441.678L305.509 495.584L322.209 502.3L343.889 448.394L327.189 441.678ZM305.494 495.623C282.016 554.802 257.896 595.329 233.55 618.384L245.927 631.454C273.143 605.681 298.437 562.222 322.225 502.261L305.494 495.623ZM233.524 618.409C209.558 641.286 179.716 652.833 143.352 652.833V670.833C183.941 670.833 218.357 657.771 245.953 631.429L233.524 618.409ZM143.352 652.833C109.249 652.833 81.2024 641.56 58.5766 619.115L45.8999 631.894C72.1023 657.887 104.798 670.833 143.352 670.833V652.833ZM58.6022 619.141C36.1717 596.71 24.9102 568.869 24.9102 534.977H6.91016C6.91016 573.351 19.8674 605.862 45.8743 631.869L58.6022 619.141ZM24.9102 534.977C24.9102 509.498 31.5745 486.041 44.9506 464.419L29.6431 454.949C14.5036 479.421 6.91016 506.159 6.91016 534.977H24.9102ZM44.9325 464.448C58.2998 443.024 77.3351 425.282 102.337 411.288L93.5458 395.581C66.204 410.884 44.8096 430.641 29.6612 454.92L44.9325 464.448ZM102.332 411.291C133.661 393.783 177.73 384.602 235.344 384.602V366.602C176.161 366.602 128.628 375.976 93.551 395.578L102.332 411.291ZM235.458 384.602L281.747 384.016L281.519 366.017L235.23 366.603L235.458 384.602ZM289.984 378.371L358.246 208.449L341.543 201.74L273.281 371.661L289.984 378.371ZM358.258 208.418C364.175 193.527 368.681 180.836 371.719 170.404C374.706 160.148 376.473 151.433 376.473 144.743H358.473C358.473 148.795 357.309 155.509 354.437 165.371C351.616 175.056 347.332 187.17 341.531 201.771L358.258 208.418ZM376.473 144.743C376.473 132.421 370.79 122.079 360.831 114.017L349.505 128.008C355.953 133.227 358.473 138.705 358.473 144.743H376.473ZM360.93 114.098C351.006 105.829 339.166 101.759 325.871 101.759V119.759C335.232 119.759 342.924 122.524 349.406 127.926L360.93 114.098ZM325.871 101.759C303.831 101.759 284.271 111.88 267.356 130.486L280.675 142.594C295.011 126.825 310.021 119.759 325.871 119.759V101.759ZM267.318 130.528C250.574 149.179 241.871 170.311 241.871 193.669H259.871C259.871 175.23 266.597 158.276 280.713 142.552L267.318 130.528ZM241.871 193.669C241.871 206.364 244.835 217.571 251.655 226.412L265.907 215.418C262.181 210.587 259.871 203.63 259.871 193.669H241.871ZM251.834 226.636C258.743 235.025 269.8 241.588 283.692 246.899L290.12 230.086C277.45 225.242 269.757 220.086 265.729 215.193L251.834 226.636ZM283.544 246.841C289.576 249.271 293.367 252.123 295.639 255.026C297.815 257.807 299 261.136 299 265.446H317C317 257.452 314.669 250.136 309.814 243.932C305.055 237.852 298.299 233.379 290.269 230.145L283.544 246.841ZM299 265.446C299 273.979 295.923 280.807 289.443 286.534L301.362 300.022C311.679 290.905 317 279.179 317 265.446H299ZM289.443 286.534C282.882 292.332 274.631 295.411 264.055 295.411V313.411C278.478 313.411 291.126 309.068 301.362 300.022L289.443 286.534ZM264.055 295.411C242.13 295.411 223.354 286.506 207.314 267.792L193.647 279.506C212.763 301.808 236.37 313.411 264.055 313.411V295.411ZM207.373 267.862C191.469 248.92 183.406 226.02 183.406 198.649H165.406C165.406 229.872 174.726 256.972 193.588 279.436L207.373 267.862ZM183.406 198.649C183.406 158.419 198.358 123.48 228.778 93.431L216.128 80.6252C182.486 113.858 165.406 153.332 165.406 198.649H183.406ZM228.798 93.4115C259.229 63.1652 294.579 48.2742 335.246 48.2742V30.2742C289.585 30.2742 249.739 47.2191 216.109 80.6447L228.798 93.4115ZM335.246 48.2742C364.918 48.2742 389.05 57.1827 408.3 74.6501L420.396 61.3201C397.458 40.5062 368.855 30.2742 335.246 30.2742V48.2742ZM408.365 74.7084C427.718 91.9313 437.281 113.306 437.281 139.469H455.281C455.281 108.212 443.555 81.9295 420.331 61.2618L408.365 74.7084ZM437.281 139.469C437.281 156.067 432.613 176.755 422.682 201.774L439.412 208.415C449.793 182.262 455.281 159.2 455.281 139.469H437.281ZM422.691 201.752L354.722 371.674L371.434 378.359L439.403 208.437L422.691 201.752ZM255.559 436.036C214.175 436.036 181.516 439.95 158.196 448.279L164.25 465.23C184.68 457.934 214.91 454.036 255.559 454.036V436.036ZM158.206 448.275C136.736 455.914 119.31 467.039 106.384 481.904L119.967 493.715C130.479 481.626 145.084 472.049 164.239 465.234L158.206 448.275ZM106.342 481.952C93.3721 497.084 86.5977 514.157 86.5977 532.927H104.598C104.598 518.884 109.542 505.878 120.009 493.666L106.342 481.952ZM86.5977 532.927C86.5977 550.332 92.372 565.47 103.996 577.778L117.082 565.419C108.784 556.633 104.598 545.99 104.598 532.927H86.5977ZM103.996 577.778C115.623 590.089 130.085 596.419 146.867 596.419V578.419C135.134 578.419 125.377 574.201 117.082 565.419L103.996 577.778ZM146.867 596.419C168.057 596.419 186.665 586.944 202.475 569.425L189.111 557.366C176.015 571.878 162.005 578.419 146.867 578.419V596.419ZM202.397 569.51C218.158 552.488 233.005 525.799 247.216 490.273L230.503 483.588C216.588 518.375 202.725 542.662 189.189 557.281L202.397 569.51ZM247.22 490.263L263.919 448.368L247.198 441.703L230.499 483.598L247.22 490.263Z" fill="white"/>
<rect x="62" y="455.574" width="193" height="124" fill="black"/>
<rect x="378" y="98" width="97" height="262" fill="black"/>
<rect x="330" y="332" width="104" height="69" fill="black"/>
<path d="M486.68 109.117H457.676H449.766C428.086 109.117 417.246 99.7422 417.246 80.9922C417.246 69.0781 421.641 59.1172 430.43 51.1094C439.414 43.1016 450.352 39.0977 463.242 39.0977H471.152H556.992C614.414 39.0977 658.457 52.7695 689.121 80.1133C719.785 107.457 735.117 146.812 735.117 198.18C735.117 276.5 709.043 348.277 656.895 413.512C627.402 450.23 594.004 476.988 556.699 493.785C519.59 510.582 475.059 518.98 423.105 518.98H402.598L399.082 527.184C385.41 557.652 374.668 579.039 366.855 591.344C359.043 603.648 348.887 615.562 336.387 627.086C303.77 656.969 266.367 671.91 224.18 671.91C189.414 671.91 160.898 661.559 138.633 640.855C116.172 620.348 104.941 594.176 104.941 562.34C104.941 542.809 109.727 524.449 119.297 507.262C128.867 490.27 141.855 476.988 158.262 467.418C179.551 455.113 208.359 448.961 244.688 448.961H348.691L486.68 109.117ZM431.016 448.961H442.734C503.281 448.961 553.965 422.105 594.785 368.395C614.512 342.613 630.039 314.684 641.367 284.605C652.891 254.527 658.652 226.695 658.652 201.109C658.652 172.594 650.645 150.133 634.629 133.727C618.613 117.32 596.836 109.117 569.297 109.117L431.016 448.961ZM320.273 518.98H242.637C204.355 518.98 185.215 532.555 185.215 559.703C185.215 570.836 189.414 580.211 197.812 587.828C206.211 595.445 216.465 599.254 228.574 599.254C246.543 599.254 263.633 592.125 279.844 577.867C296.055 563.805 309.531 544.176 320.273 518.98Z" fill="black"/>
<path d="M486.68 109.117L495.945 112.879L501.533 99.1172H486.68V109.117ZM430.43 51.1094L423.776 43.6442L423.735 43.6806L423.695 43.7174L430.43 51.1094ZM656.895 413.512L664.691 419.774L664.698 419.765L664.706 419.756L656.895 413.512ZM556.699 493.785L552.594 484.667L552.585 484.671L552.576 484.675L556.699 493.785ZM402.598 518.98V508.98H396.004L393.406 515.041L402.598 518.98ZM399.082 527.184L408.206 531.278L408.24 531.2L408.273 531.123L399.082 527.184ZM336.387 627.086L343.142 634.459L343.153 634.449L343.165 634.438L336.387 627.086ZM138.633 640.855L145.442 633.532L145.409 633.501L145.376 633.471L138.633 640.855ZM119.297 507.262L110.584 502.354L110.572 502.376L110.56 502.397L119.297 507.262ZM158.262 467.418L153.258 458.76L153.24 458.77L153.223 458.78L158.262 467.418ZM348.691 448.961V458.961H355.424L357.957 452.723L348.691 448.961ZM431.016 448.961L421.753 445.192L416.151 458.961H431.016V448.961ZM594.785 368.395L586.843 362.318L586.833 362.331L586.824 362.344L594.785 368.395ZM641.367 284.605L632.029 281.028L632.019 281.054L632.009 281.081L641.367 284.605ZM569.297 109.117V99.1172H562.57L560.034 105.348L569.297 109.117ZM320.273 518.98L329.472 522.902L335.408 508.98H320.273V518.98ZM279.844 577.867L273.291 570.313L273.265 570.336L273.24 570.358L279.844 577.867ZM486.68 99.1172H457.676V119.117H486.68V99.1172ZM457.676 99.1172H449.766V119.117H457.676V99.1172ZM449.766 99.1172C440.14 99.1172 434.788 97.0048 431.918 94.5223C429.325 92.2799 427.246 88.4168 427.246 80.9922H407.246C407.246 92.3176 410.587 102.517 418.834 109.65C426.804 116.542 437.711 119.117 449.766 119.117V99.1172ZM427.246 80.9922C427.246 71.8852 430.46 64.6098 437.165 58.5013L423.695 43.7174C412.821 53.6245 407.246 66.271 407.246 80.9922H427.246ZM437.083 58.5745C444.099 52.3214 452.616 49.0977 463.242 49.0977V29.0977C448.088 29.0977 434.729 33.8818 423.776 43.6442L437.083 58.5745ZM463.242 49.0977H471.152V29.0977H463.242V49.0977ZM471.152 49.0977H556.992V29.0977H471.152V49.0977ZM556.992 49.0977C612.934 49.0977 654.25 62.4162 682.466 87.5769L695.777 72.6497C662.664 43.1229 615.894 29.0977 556.992 29.0977V49.0977ZM682.466 87.5769C710.489 112.566 725.117 148.896 725.117 198.18H745.117C745.117 144.729 729.081 102.348 695.777 72.6497L682.466 87.5769ZM725.117 198.18C725.117 274.074 699.916 343.68 649.084 407.268L664.706 419.756C718.17 352.875 745.117 278.926 745.117 198.18H725.117ZM649.098 407.25C620.444 442.925 588.257 468.609 552.594 484.667L560.805 502.904C599.751 485.367 634.361 457.536 664.691 419.774L649.098 407.25ZM552.576 484.675C517.067 500.747 474.014 508.98 423.105 508.98V528.98C476.103 528.98 522.113 520.417 560.823 502.895L552.576 484.675ZM423.105 508.98H402.598V528.98H423.105V508.98ZM393.406 515.041L389.891 523.244L408.273 531.123L411.789 522.92L393.406 515.041ZM389.958 523.09C376.298 553.533 365.806 574.341 358.413 585.984L375.298 596.704C383.53 583.738 394.522 561.772 408.206 531.278L389.958 523.09ZM358.413 585.984C351.136 597.445 341.573 608.704 329.609 619.734L343.165 634.438C356.2 622.421 366.95 609.852 375.298 596.704L358.413 585.984ZM329.631 619.713C298.76 647.996 263.736 661.91 224.18 661.91V681.91C268.998 681.91 308.779 665.941 343.142 634.459L329.631 619.713ZM224.18 661.91C191.551 661.91 165.591 652.267 145.442 633.532L131.823 648.179C156.206 670.85 187.277 681.91 224.18 681.91V661.91ZM145.376 633.471C125.097 614.955 114.941 591.514 114.941 562.34H94.9414C94.9414 596.837 107.247 625.74 131.89 648.24L145.376 633.471ZM114.941 562.34C114.941 544.524 119.286 527.838 128.034 512.127L110.56 502.397C100.168 521.061 94.9414 541.093 94.9414 562.34H114.941ZM128.01 512.169C136.733 496.681 148.471 484.706 163.3 476.056L153.223 458.78C135.24 469.27 121.001 483.858 110.584 502.354L128.01 512.169ZM163.266 476.076C182.476 464.973 209.335 458.961 244.688 458.961V438.961C207.384 438.961 176.625 445.254 153.258 458.76L163.266 476.076ZM244.688 458.961H348.691V438.961H244.688V458.961ZM357.957 452.723L495.945 112.879L477.414 105.355L339.426 445.199L357.957 452.723ZM431.016 458.961H442.734V438.961H431.016V458.961ZM442.734 458.961C506.794 458.961 560.283 430.318 602.747 374.445L586.824 362.344C547.646 413.892 499.768 438.961 442.734 438.961V458.961ZM602.727 374.471C623.042 347.921 639.049 319.133 650.725 288.13L632.009 281.081C621.029 310.234 605.981 337.306 586.843 362.318L602.727 374.471ZM650.705 288.183C662.558 257.247 668.652 228.189 668.652 201.109H648.652C648.652 225.201 643.224 251.808 632.029 281.028L650.705 288.183ZM668.652 201.109C668.652 170.654 660.044 145.446 641.785 126.741L627.473 140.712C641.245 154.82 648.652 174.534 648.652 201.109H668.652ZM641.785 126.741C623.516 108.027 598.948 99.1172 569.297 99.1172V119.117C594.724 119.117 613.71 126.613 627.473 140.712L641.785 126.741ZM560.034 105.348L421.753 445.192L440.278 452.73L578.559 112.886L560.034 105.348ZM320.273 508.98H242.637V528.98H320.273V508.98ZM242.637 508.98C222.618 508.98 205.812 512.475 193.786 521.004C181.128 529.981 175.215 543.472 175.215 559.703H195.215C195.215 548.786 198.872 541.916 205.355 537.318C212.469 532.273 224.374 528.98 242.637 528.98V508.98ZM175.215 559.703C175.215 573.716 180.65 585.762 191.094 595.235L204.531 580.421C198.178 574.659 195.215 567.956 195.215 559.703H175.215ZM191.094 595.235C201.465 604.641 214.166 609.254 228.574 609.254V589.254C218.764 589.254 210.957 586.25 204.531 580.421L191.094 595.235ZM228.574 609.254C249.443 609.254 268.798 600.9 286.448 585.376L273.24 570.358C258.468 583.35 243.643 589.254 228.574 589.254V609.254ZM286.397 585.421C304.025 570.129 318.294 549.12 329.472 522.902L311.075 515.058C300.768 539.232 288.084 557.481 273.291 570.313L286.397 585.421Z" fill="white"/>
</g>
<defs>
<clipPath id="clip0_470_19">
<rect width="756" height="685" fill="white"/>
</clipPath>
</defs>
</svg>
